<?xml version="1.0" standalone="no"?>
<!DOCTYPE svg PUBLIC "-//W3C//DTD SVG 20010904//EN"
 "http://www.w3.org/TR/2001/REC-SVG-20010904/DTD/svg10.dtd">
<svg version="1.0" xmlns="http://www.w3.org/2000/svg"
 width="700.000000pt" height="700.000000pt" viewBox="0 0 700.000000 700.000000"
 preserveAspectRatio="xMidYMid meet">
<metadata>
Created by potrace 1.14, written by Peter Selinger 2001-2017
</metadata>
<g transform="translate(0.000000,700.000000) scale(0.100000,-0.100000)"
fill="#000000" stroke="none">
<path d="M2440 6445 c-56 -10 -60 -12 -31 -16 30 -4 38 -12 73 -73 33 -59 35
-67 16 -54 -26 17 -146 86 -185 107 -47 25 -233 -29 -327 -95 -27 -18 -42 -18
-26 1 17 20 0 20 -48 -1 -20 -10 -43 -18 -50 -20 -7 -1 -60 -25 -116 -53 -84
-40 -106 -56 -116 -80 -7 -17 -16 -28 -21 -25 -5 3 -7 10 -4 15 4 5 -1 9 -9 9
-10 0 -16 -9 -17 -22 0 -13 -3 -17 -6 -10 -6 15 -13 15 -37 -3 -19 -14 -19
-16 -2 -28 15 -11 13 -13 -23 -13 -23 0 -46 -5 -52 -11 -8 -8 -3 -11 19 -9 16
1 38 -1 48 -5 18 -7 18 -7 -1 -15 -18 -8 -90 -49 -187 -107 l-31 -18 23 38
c19 32 19 35 4 22 -11 -9 -34 -29 -53 -45 -54 -47 -131 -122 -131 -128 0 -4
18 5 41 20 22 14 43 24 45 22 2 -2 -14 -33 -36 -68 -36 -61 -41 -65 -77 -66
-67 -3 -73 -4 -73 -14 0 -6 26 -10 58 -10 l57 0 35 -62 c19 -35 37 -66 39 -71
1 -4 -27 10 -63 32 -37 23 -70 41 -74 41 -4 0 -18 9 -32 20 -33 26 -46 25 -66
-5 -15 -23 -15 -27 15 -75 l31 -51 -37 -65 c-44 -76 -50 -70 -47 59 2 58 -1
76 -9 68 -7 -7 -11 -48 -11 -101 -1 -50 -3 -90 -6 -90 -3 0 -16 20 -29 45
l-24 46 -28 -43 -29 -43 35 -20 c19 -11 35 -23 35 -27 0 -3 -21 -6 -47 -5 -29
1 -48 -3 -50 -10 -3 -9 10 -12 42 -11 25 0 48 -2 51 -5 3 -2 -31 -26 -75 -51
-82 -47 -85 -51 -121 -142 -7 -19 3 -27 96 -80 57 -32 104 -62 104 -66 0 -3
-33 -6 -74 -6 l-74 1 -33 59 -33 58 -18 -47 c-23 -59 -59 -178 -63 -207 -1
-11 -5 -28 -8 -36 -12 -33 -14 -59 -6 -62 5 -2 2 -15 -5 -30 -8 -16 -17 -45
-21 -65 -3 -21 -8 -52 -11 -70 -5 -24 1 -44 20 -79 32 -57 32 -58 2 -39 -30
20 -32 15 -35 -58 l-3 -58 31 16 c17 8 31 13 31 10 0 -2 -13 -27 -30 -53 -39
-64 -39 -111 0 -177 37 -62 37 -70 3 -48 l-26 17 6 -39 c4 -22 7 -50 7 -63 0
-20 3 -21 20 -12 24 13 25 7 4 -24 -14 -22 -14 -32 0 -98 21 -103 60 -232 103
-345 35 -91 38 -95 51 -75 13 20 23 22 96 22 l81 0 -82 -48 -82 -48 36 -69
c50 -97 101 -175 113 -175 6 0 9 -4 6 -8 -3 -5 11 -31 31 -58 20 -27 33 -41
30 -31 -4 9 -4 17 0 17 9 0 31 -31 59 -86 15 -28 43 -70 64 -94 l37 -43 57 31
c51 29 70 31 47 7 -5 -6 -19 -28 -31 -50 l-22 -40 73 -67 c41 -37 76 -68 79
-68 3 0 18 20 33 45 l29 45 81 0 c44 0 78 -2 76 -4 -2 -2 -26 -16 -54 -32 -27
-15 -69 -39 -93 -54 l-42 -26 77 -55 c105 -75 106 -75 83 -37 l-19 33 29 47
c17 27 30 52 30 57 0 5 6 13 13 19 9 8 12 -14 12 -104 0 -71 4 -113 10 -112 6
2 10 49 10 117 -1 126 -3 125 56 21 l27 -46 -33 -56 -34 -57 25 -16 c23 -15
60 -13 74 4 3 3 14 11 25 17 11 6 46 26 79 44 l58 33 -26 -47 c-49 -88 -56
-96 -90 -97 l-31 -1 30 -10 c17 -6 35 -15 41 -19 13 -11 153 -69 165 -69 5 0
20 17 33 39 l25 38 77 1 78 1 -30 -20 c-16 -11 -51 -31 -78 -45 -53 -28 -52
-35 13 -53 23 -7 49 -15 56 -18 9 -3 25 15 44 49 l31 53 -1 -80 c0 -53 6 -102
19 -147 176 -589 578 -1069 1117 -1333 210 -103 402 -163 640 -201 152 -25
477 -25 630 0 470 75 866 275 1198 604 329 326 544 751 613 1212 19 123 25
398 12 530 -74 759 -553 1421 -1263 1747 -84 38 -258 99 -352 123 -36 9 -42
15 -52 48 -9 35 -10 35 -9 7 0 -16 0 -68 -1 -115 l-1 -85 -40 72 -40 71 36 63
37 63 -37 109 c-38 112 -94 237 -105 237 -3 0 -32 -16 -63 -35 -32 -19 -58
-32 -58 -29 0 11 73 129 84 136 7 4 5 13 -5 25 -14 17 -30 41 -80 130 -29 52
-109 158 -109 146 0 -6 6 -18 13 -25 7 -7 16 -21 19 -30 4 -10 -36 8 -109 50
l-115 67 73 5 c60 4 70 7 54 15 -11 6 -46 10 -77 9 -32 0 -58 0 -58 2 0 1 18
13 40 25 22 13 40 26 40 29 0 3 -14 19 -30 35 -34 32 -33 32 -66 -27 -8 -16
-16 -28 -17 -28 -1 0 -2 31 -3 70 0 41 -5 75 -12 82 -9 9 -11 -6 -9 -65 1 -42
0 -77 -3 -77 -3 0 -22 28 -42 63 -33 58 -35 64 -22 89 20 38 18 42 -20 72
l-34 26 -68 -40 c-38 -22 -72 -40 -76 -40 -4 0 10 30 33 66 l40 66 -23 17
c-39 28 -143 91 -150 91 -4 0 -17 -18 -29 -40 -13 -22 -25 -41 -28 -41 -10 -2
-161 -5 -161 -3 0 1 41 25 91 54 l91 52 -29 17 c-15 9 -44 24 -65 33 l-36 17
-26 -39 c-14 -22 -26 -43 -26 -47 0 -5 -8 -18 -18 -30 -16 -22 -17 -20 -15 67
0 50 -2 90 -7 90 -13 0 -16 -20 -14 -97 0 -40 -2 -73 -5 -73 -3 0 -21 28 -40
63 -34 63 -34 64 -18 97 10 18 16 34 15 35 -2 1 -27 10 -56 19 l-52 18 -51
-32 c-28 -17 -53 -29 -55 -27 -3 3 5 21 17 41 16 28 18 37 7 40 -55 18 -88 26
-123 32 -22 3 -44 9 -49 12 -5 3 7 -24 27 -60 20 -37 37 -69 37 -72 0 -3 -36
17 -81 44 -44 28 -84 50 -87 50 -4 0 -20 11 -37 24 l-30 25 35 -6 c34 -5 36 8
2 14 -51 10 -454 8 -512 -2z m376 -18 c2 -2 -13 -12 -34 -22 -69 -36 -157 -89
-174 -103 -26 -22 -22 -8 18 63 24 44 42 65 57 67 24 4 129 0 133 -5z m-598
-234 l-3 -68 -38 68 -38 68 28 47 c15 26 32 56 38 67 8 16 10 5 13 -47 2 -38
2 -98 0 -135z m66 136 c25 -42 35 -68 30 -82 -6 -20 -63 -117 -68 -117 -2 0
-3 59 -4 130 0 72 1 130 3 130 1 0 19 -28 39 -61z m620 33 c6 -11 21 -38 34
-61 l23 -42 -37 -64 c-19 -36 -38 -65 -40 -65 -2 0 -4 59 -4 132 0 72 3 128 6
125 4 -4 12 -15 18 -25z m-44 -114 l0 -133 -41 70 -41 70 33 63 c18 34 37 62
41 62 4 0 8 -60 8 -132z m-372 -75 c-50 -91 -45 -88 -125 -89 -40 -1 -73 2
-73 5 0 5 211 135 228 140 1 1 -12 -25 -30 -56z m-649 -20 l-39 -68 -79 0
c-44 0 -78 2 -75 4 9 9 219 131 226 131 4 0 -11 -30 -33 -67z m228 4 c56 -32
105 -61 107 -66 3 -4 -28 -7 -69 -7 -83 2 -77 -2 -130 90 -16 27 -24 47 -19
45 5 -2 55 -30 111 -62z m641 -1 c56 -33 102 -63 102 -66 0 -3 -32 -6 -72 -5
l-71 0 -38 60 c-38 60 -46 80 -31 73 4 -1 54 -30 110 -62z m426 32 c-9 -18
-27 -49 -39 -69 -23 -35 -23 -35 -93 -34 -39 0 -74 4 -78 8 -4 4 -2 7 3 7 6 0
56 27 110 59 54 33 101 60 106 60 4 1 0 -14 -9 -31z m144 8 c20 -13 70 -42
110 -65 39 -23 72 -43 72 -44 0 -1 -35 -2 -77 -2 -86 0 -82 -2 -127 78 -37 68
-36 70 22 33z m-1474 -138 c34 -51 72 -128 65 -128 -6 0 -23 8 -37 18 -23 16
-86 52 -170 97 -13 7 -18 15 -12 17 14 4 151 1 154 -4z m361 3 c13 -1 -5 -16
-50 -42 -113 -66 -157 -90 -160 -87 -7 7 71 127 84 130 13 3 67 2 126 -1z
m308 -60 c21 -35 36 -65 33 -68 -3 -3 -39 16 -81 41 -42 25 -79 46 -83 46 -4
0 -20 10 -35 23 l-28 22 78 -1 78 -1 38 -62z m337 57 c0 -4 -30 -24 -67 -44
-38 -21 -70 -40 -73 -43 -3 -3 -24 -16 -46 -27 l-41 -22 38 67 c22 36 46 68
54 71 22 8 135 6 135 -2z m252 3 c13 -1 88 -115 88 -134 0 -7 -229 126 -230
133 0 4 84 5 142 1z m388 -1 c13 -1 13 -2 0 -7 -8 -4 -31 -16 -50 -28 -19 -12
-57 -34 -83 -48 -26 -15 -59 -35 -74 -44 l-26 -17 13 24 c7 13 28 47 45 75
l32 50 64 -2 c35 -1 71 -2 79 -3z m263 -1 c11 -14 64 -107 70 -121 4 -11 -20
-1 -71 29 -42 26 -94 55 -114 66 -20 11 -36 23 -34 26 4 7 144 7 149 0z
m-2129 -179 c-1 -61 -3 -113 -6 -115 -2 -2 -20 24 -40 58 l-36 62 36 67 c22
40 39 62 42 53 3 -8 4 -64 4 -125z m64 74 l40 -66 -35 -59 c-20 -33 -38 -61
-42 -63 -4 -3 -6 54 -7 125 0 71 1 129 3 129 1 0 20 -30 41 -66z m570 -131
l-3 -68 -38 68 -39 67 39 64 38 65 3 -65 c2 -35 2 -94 0 -131z m640 -4 l-3
-72 -23 43 c-12 23 -29 55 -38 70 -16 26 -15 29 22 96 l39 69 3 -67 c2 -37 2
-99 0 -139z m52 155 c0 -7 3 -14 8 -16 4 -1 15 -18 25 -36 l18 -33 -36 -64
c-20 -36 -38 -65 -40 -65 -3 0 -5 60 -5 133 1 118 2 130 15 113 8 -11 15 -25
15 -32z m625 30 c0 -5 8 -21 18 -36 53 -85 51 -75 20 -126 -15 -26 -30 -53
-33 -60 -3 -8 -10 -12 -15 -10 -13 4 -13 249 0 245 6 -2 10 -8 10 -13z m-1247
-50 c17 -31 32 -60 32 -66 0 -11 -69 -128 -75 -128 -2 0 -3 56 -3 125 1 69 4
125 7 125 3 0 21 -25 39 -56z m1208 -74 l0 -131 -33 53 c-48 77 -49 86 -11
151 17 31 35 57 38 57 3 0 5 -59 6 -130z m-379 -94 l-42 -73 -72 0 c-40 0 -73
3 -73 7 0 7 77 55 140 87 14 7 39 22 55 32 17 11 31 20 32 20 1 1 -17 -32 -40
-73z m-1684 -1 c59 -33 107 -62 107 -65 0 -3 -34 -6 -75 -7 l-74 -1 -27 47
c-15 25 -34 57 -43 70 -19 30 -18 29 112 -44z m406 -2 l-39 -68 -81 -1 c-44
-1 -77 1 -74 4 9 10 220 132 227 132 4 0 -11 -30 -33 -67z m222 7 c55 -33 105
-60 110 -60 5 0 9 -4 9 -8 0 -5 -34 -9 -75 -8 -82 1 -76 -3 -129 89 -15 26
-24 47 -22 47 3 0 51 -27 107 -60z m449 55 c0 -3 -16 -34 -36 -69 l-36 -62
-79 0 c-44 0 -76 3 -72 7 5 4 49 31 98 59 50 28 94 56 100 61 10 10 25 12 25
4z m218 -72 c50 -30 92 -57 92 -59 0 -2 -35 -2 -77 -1 l-76 2 -38 60 c-58 92
-61 92 99 -2z m618 11 c63 -36 114 -67 114 -68 0 -2 -36 -2 -80 -2 -75 1 -81
3 -93 26 -24 45 -42 75 -56 93 -23 28 -4 20 115 -49z m426 34 c-68 -116 -54
-105 -132 -105 -38 0 -70 3 -70 7 0 7 115 80 126 80 3 0 22 11 42 25 49 33 57
32 34 -7z m206 -30 c59 -34 110 -64 114 -68 5 -3 -28 -6 -72 -5 l-80 0 -21 35
c-12 19 -30 50 -41 68 -11 17 -17 32 -14 32 4 0 55 -28 114 -62z m-2440 -103
c-9 -9 -223 -133 -226 -130 -1 1 15 31 36 66 l39 64 69 5 c63 5 90 3 82 -5z
m2212 -58 c19 -34 37 -65 38 -69 2 -5 -49 22 -113 59 l-116 68 68 5 c37 3 73
4 78 2 6 -1 26 -30 45 -65z m323 48 c-10 -7 -62 -37 -116 -68 l-98 -57 38 70
38 69 65 3 c81 4 97 0 73 -17z m-2250 -22 c13 -21 32 -53 41 -70 l16 -33 -37
22 c-21 12 -76 43 -123 70 l-85 48 82 0 83 0 23 -37z m304 2 c-32 -19 -60 -35
-62 -35 -3 0 -30 -16 -61 -36 -31 -20 -55 -32 -53 -28 2 5 19 37 38 72 l34 62
81 0 81 0 -58 -35z m336 -5 c10 -19 28 -50 40 -69 24 -39 36 -44 -123 49
l-105 61 84 -3 84 -3 20 -35z m257 -21 c-58 -33 -111 -65 -117 -71 -21 -17
-15 0 23 68 l36 64 81 0 82 0 -105 -61z m398 -10 l41 -70 -67 37 c-37 21 -92
53 -122 71 l-55 33 81 0 81 0 41 -71z m232 6 c-62 -36 -115 -63 -117 -61 -3 2
7 22 21 45 14 22 26 44 26 49 0 23 29 32 104 32 l80 0 -114 -65z m146 -100 c0
-74 -3 -135 -6 -135 -7 0 -70 116 -70 128 0 7 71 140 75 142 0 0 1 -61 1 -135z
m-1912 -14 c1 -72 -2 -127 -6 -123 -3 4 -22 34 -41 67 l-35 60 36 67 c20 37
39 65 41 62 2 -2 5 -62 5 -133z m71 63 l33 -57 -30 -51 c-56 -94 -54 -96 -53
49 0 78 4 130 9 125 5 -5 23 -34 41 -66z m565 -61 l0 -138 -40 72 -40 72 20
33 c10 18 27 48 36 66 9 17 18 32 20 32 2 0 4 -62 4 -137z m64 76 c20 -33 36
-65 36 -70 0 -11 -50 -101 -61 -109 -3 -3 -8 -12 -11 -20 -3 -8 -5 47 -5 123
0 75 1 137 2 137 2 0 19 -27 39 -61z m575 -76 l0 -138 -40 70 -41 70 18 35
c29 55 56 100 59 100 2 0 4 -62 4 -137z m96 16 c3 -9 -13 -47 -35 -85 l-40
-69 0 140 0 140 35 -55 c19 -30 37 -62 40 -71z m608 -76 c-36 -61 -38 -63 -43
-37 -4 23 -5 174 -1 224 1 8 19 -16 41 -54 l41 -68 -38 -65z m571 67 c-1 -67
-4 -123 -7 -126 -2 -3 -17 19 -32 48 -15 29 -31 57 -36 62 -8 9 61 147 71 141
3 -2 4 -58 4 -125z m42 107 c24 -49 49 -92 58 -98 7 -6 -24 -64 -72 -136 -4
-7 -8 48 -7 122 0 74 2 135 5 135 3 0 10 -10 16 -23z m-726 -275 c9 -5 -17 -8
-69 -8 l-82 1 -40 72 -40 72 108 -64 c59 -35 115 -68 123 -73z m-2236 81 c-52
-91 -46 -87 -131 -89 -75 -2 -77 -2 -54 14 38 27 195 120 204 121 5 1 -3 -20
-19 -46z m141 26 c17 -10 37 -22 45 -26 31 -15 144 -83 140 -84 -3 -1 -38 -2
-78 -3 l-73 -2 -39 68 c-21 37 -36 68 -32 67 4 0 21 -9 37 -20z m482 -51 l-35
-63 -81 -1 c-44 0 -79 2 -76 4 11 11 220 130 224 126 2 -1 -13 -31 -32 -66z
m214 17 c50 -30 95 -55 99 -55 4 0 13 -6 19 -14 9 -11 -2 -13 -64 -13 l-76 0
-36 61 c-46 77 -45 76 -39 76 3 0 46 -25 97 -55z m424 -17 l-36 -63 -75 -1
c-41 0 -74 2 -74 5 0 8 213 131 218 126 2 -2 -13 -32 -33 -67z m253 -5 c50
-30 92 -55 92 -57 0 -1 -36 -2 -79 -2 -64 -1 -81 3 -85 15 -3 9 -19 36 -35 61
-49 75 -51 75 107 -17z m386 9 l-36 -69 -79 0 c-43 0 -79 1 -79 3 0 2 61 40
109 67 19 10 51 29 70 42 20 13 40 24 44 24 4 1 -9 -30 -29 -67z m644 11 c-17
-32 -35 -62 -40 -68 -5 -5 -45 -10 -89 -11 -44 -1 -78 0 -77 2 8 8 224 133
231 133 4 1 -7 -25 -25 -56z m147 37 c6 -5 27 -17 48 -29 168 -94 164 -89 68
-88 l-81 2 -21 35 c-12 19 -30 50 -41 67 -18 31 -19 33 -1 26 10 -3 23 -9 28
-13z m484 -49 l-39 -68 -80 0 c-44 0 -80 2 -80 3 0 3 141 84 146 84 3 0 22 11
42 25 20 14 40 25 44 25 4 0 -11 -31 -33 -69z m-3225 -93 c8 -9 76 -130 76
-133 0 -5 -220 122 -232 133 -4 4 29 6 73 5 45 -1 82 -3 83 -5z m376 2 c0 -3
-42 -30 -92 -60 -51 -29 -104 -60 -118 -69 -24 -15 -23 -14 9 44 50 90 50 90
130 90 39 0 71 -2 71 -5z m260 0 c3 0 10 -10 15 -23 6 -12 24 -44 40 -72 l29
-49 -37 22 c-20 12 -54 32 -74 44 -85 51 -99 59 -115 64 -37 13 -15 19 59 17
43 -1 80 -2 83 -3z m376 -3 c2 -1 -48 -33 -111 -69 -63 -36 -115 -64 -115 -61
0 2 17 33 38 68 23 40 45 65 57 67 24 4 126 0 131 -5z m256 4 c9 -1 78 -118
78 -132 0 -5 -17 2 -37 15 -46 30 -117 71 -160 93 -18 9 -33 19 -33 22 0 5
116 6 152 2z m378 0 c14 -1 -23 -24 -172 -109 l-57 -33 42 70 c41 69 42 70 87
73 25 2 54 2 65 1 11 -1 27 -2 35 -2z m305 -66 c19 -35 35 -65 35 -68 0 -3
-52 25 -116 61 -111 65 -114 67 -82 72 18 3 54 3 80 2 47 -4 48 -5 83 -67z
m335 66 c8 -1 -19 -20 -60 -44 -41 -23 -97 -56 -124 -71 -48 -29 -48 -29 -35
-5 8 13 16 26 19 29 3 3 15 23 26 45 19 35 27 41 65 45 24 3 55 4 69 3 14 -1
32 -2 40 -2z m305 -74 c36 -67 37 -71 15 -56 -14 9 -68 40 -120 70 l-95 54 55
5 c97 9 102 6 145 -73z m310 74 c39 -1 40 -1 15 -14 -33 -18 -168 -96 -199
-116 -23 -15 -23 -12 11 49 38 70 59 87 104 84 16 -1 47 -3 69 -3z m293 -15
c5 -6 24 -38 42 -70 l34 -60 -35 21 c-19 11 -72 42 -119 69 l-85 49 50 5 c62
6 102 1 113 -14z m-3345 -222 c-20 -34 -39 -61 -42 -59 -5 2 -6 163 -2 240 1
13 15 -4 41 -49 l41 -68 -38 -64z m618 159 c59 -95 59 -93 35 -133 -12 -19
-28 -47 -35 -62 -8 -16 -17 -28 -20 -28 -3 0 -6 59 -7 130 0 72 1 130 2 130 1
0 13 -17 25 -37z m589 -100 l0 -138 -40 71 -40 72 37 66 c21 36 39 66 41 66 1
0 2 -62 2 -137z m70 64 l34 -65 -25 -38 c-15 -22 -29 -49 -33 -62 -16 -50 -24
-15 -24 108 0 71 3 128 7 126 3 -2 22 -33 41 -69z m570 -64 l0 -138 -40 68
c-22 38 -40 71 -40 74 0 8 71 133 76 133 2 0 4 -62 4 -137z m86 31 c14 -30 14
-33 -22 -93 -20 -33 -38 -61 -40 -61 -2 0 -4 60 -4 133 l1 132 25 -40 c13 -22
31 -54 40 -71z m618 35 l37 -61 -38 -64 c-20 -35 -39 -61 -42 -58 -7 7 -7 253
0 248 4 -2 23 -31 43 -65z m-2619 -64 c0 -69 -2 -125 -5 -125 -3 0 -21 29 -40
63 l-34 64 18 34 c39 76 47 89 54 89 4 0 7 -56 7 -125z m640 -5 c0 -72 -1
-130 -2 -130 -7 0 -73 124 -73 137 0 18 58 123 68 123 4 0 7 -59 7 -130z
m1911 5 c0 -69 -3 -125 -6 -125 -7 0 -70 117 -70 129 0 13 63 121 71 121 3 0
6 -56 5 -125z m637 8 c-1 -65 -2 -124 -2 -132 -1 -8 -13 8 -27 34 -14 27 -32
57 -39 68 -13 18 -11 26 16 76 17 31 33 59 36 64 14 22 18 -5 16 -110z m69 58
l35 -60 -20 -40 c-11 -21 -30 -52 -42 -66 l-21 -27 0 126 c0 69 3 126 7 126 3
0 22 -27 41 -59z m-1718 -158 c-21 -38 -42 -71 -48 -75 -9 -6 -156 -7 -156 -1
0 1 44 27 98 57 54 31 107 62 117 71 11 8 21 15 23 15 2 0 -14 -30 -34 -67z
m-1275 0 c-47 -84 -41 -81 -129 -80 -44 1 -75 4 -68 9 7 4 58 34 113 67 55 32
104 60 108 60 5 1 -6 -25 -24 -56z m222 -9 c60 -36 109 -67 109 -69 0 -3 -34
-4 -75 -3 l-75 1 -40 69 c-21 37 -36 68 -33 68 3 0 54 -30 114 -66z m408 -3
l-39 -68 -75 0 c-41 0 -75 2 -75 6 0 6 209 129 222 130 4 1 -11 -30 -33 -68z
m230 4 c61 -36 111 -68 111 -70 0 -10 -151 -1 -159 9 -16 22 -72 126 -68 126
3 0 55 -29 116 -65z m661 -15 c14 -8 37 -22 53 -30 15 -7 27 -17 27 -20 0 -4
-32 -7 -71 -7 l-71 0 -34 54 c-56 86 -55 91 12 53 32 -18 70 -41 84 -50z m383
9 l-38 -64 -77 -1 c-76 -1 -89 7 -45 27 12 5 29 13 37 19 39 26 155 88 158 85
2 -1 -14 -32 -35 -66z m150 52 c72 -40 197 -114 197 -116 0 -1 -35 -2 -79 -1
l-79 0 -40 68 c-23 37 -39 68 -37 68 2 0 19 -8 38 -19z m524 12 c-2 -5 -20
-36 -41 -69 l-36 -62 -76 0 c-42 0 -72 4 -67 8 12 13 207 129 216 129 5 1 6
-2 4 -6z m208 -66 c55 -32 101 -60 103 -61 1 -2 -34 -3 -78 -3 l-79 -1 -27 46
c-15 26 -34 57 -42 70 -13 21 -13 22 4 15 11 -4 64 -34 119 -66z m398 11 c-20
-35 -38 -65 -40 -68 -3 -3 -40 -5 -84 -6 -43 0 -77 1 -75 4 8 8 221 131 228
131 4 1 -9 -27 -29 -61z m155 39 c20 -13 70 -43 110 -66 39 -23 72 -43 72 -45
0 -1 -34 -3 -75 -3 l-75 -1 -36 61 c-47 78 -46 77 -39 77 3 0 22 -11 43 -23z
m-1129 -164 c-24 -14 -60 -34 -79 -45 -19 -11 -55 -32 -80 -46 l-44 -26 24 39
c13 22 34 56 45 75 l22 35 78 -3 78 -4 -44 -25z m-2584 -19 c-44 -25 -99 -57
-123 -70 l-43 -24 18 32 c10 18 21 35 24 38 3 3 14 20 23 38 l17 32 82 0 82 0
-80 -46z m370 -26 c35 -67 36 -71 14 -57 -31 20 -166 99 -199 116 -22 12 -16
13 61 13 l85 0 39 -72z m335 68 c0 -2 -24 -18 -52 -34 -29 -16 -81 -46 -116
-66 l-63 -36 32 58 c48 85 44 82 125 82 41 0 74 -2 74 -4z m275 -19 c6 -12 24
-44 40 -71 24 -40 25 -47 9 -38 -10 6 -66 38 -124 71 l-105 61 85 0 c78 0 86
-2 95 -23z m364 19 c-12 -11 -230 -134 -227 -128 2 4 19 35 38 70 l35 62 79 0
c44 0 77 -2 75 -4z m296 -59 c19 -35 35 -67 35 -70 0 -3 -36 16 -81 43 -44 28
-82 50 -84 50 -3 0 -19 9 -37 20 l-33 20 82 0 82 0 36 -63z m320 45 c-108 -66
-205 -120 -205 -116 0 3 16 35 36 70 l36 64 81 0 82 0 -30 -18z m319 -46 c20
-35 36 -67 36 -69 0 -5 -218 118 -229 129 -2 2 32 4 76 4 l81 0 36 -64z m641
-8 c36 -67 37 -72 15 -57 -32 20 -167 98 -200 116 -22 12 -16 13 60 13 l86 0
39 -72z m335 68 c0 -4 -24 -18 -148 -88 -18 -10 -45 -26 -59 -35 l-26 -17 18
35 c10 18 29 51 42 72 l23 37 75 0 c41 0 75 -2 75 -4z m267 -8 c5 -7 25 -40
43 -73 l34 -59 -40 23 c-21 13 -74 43 -116 68 -43 25 -78 47 -78 49 0 11 148
3 157 -8z m372 8 c-9 -9 -214 -126 -221 -126 -4 0 10 29 30 65 l37 65 79 0
c44 0 77 -2 75 -4z m-3783 -166 c-1 -71 -3 -130 -6 -130 -4 0 -22 29 -41 65
-30 57 -33 67 -21 86 8 12 23 38 34 58 27 48 29 51 32 51 1 0 2 -58 2 -130z
m72 58 c8 -10 11 -18 7 -18 -4 0 0 -9 10 -20 17 -19 16 -21 -21 -84 -20 -36
-40 -63 -43 -61 -5 2 -6 189 -1 245 0 8 8 2 17 -15 8 -16 22 -38 31 -47z m566
-53 c-1 -69 -3 -127 -6 -130 -2 -2 -20 24 -40 58 -35 60 -35 63 -20 92 17 34
61 105 65 105 1 0 2 -56 1 -125z m78 37 l27 -48 -43 -67 -42 -68 0 135 c1 151
1 150 58 48z m558 -43 c0 -74 -4 -128 -9 -125 -5 3 -23 33 -40 65 l-31 60 38
65 c20 36 38 66 40 66 1 0 2 -59 2 -131z m100 2 c0 -10 -42 -90 -65 -124 -10
-14 -12 9 -12 119 l-1 137 39 -61 c22 -34 39 -66 39 -71z m539 -2 c0 -146 -3
-149 -53 -56 l-29 54 38 66 c20 37 38 67 41 67 2 0 3 -59 3 -131z m75 46 l28
-50 -37 -62 c-21 -35 -39 -63 -41 -63 -2 0 -4 60 -4 132 0 146 -2 144 54 43z
m562 -49 c0 -74 -3 -133 -6 -131 -3 2 -21 33 -40 69 -35 65 -35 66 -17 93 10
15 25 45 35 66 9 20 19 37 22 37 3 0 5 -60 6 -134z m77 48 l27 -47 -37 -64
c-24 -41 -39 -58 -43 -49 -3 9 -4 62 -3 118 2 140 1 137 16 111 6 -12 24 -43
40 -69z m561 -39 c-1 -69 -3 -128 -6 -130 -2 -2 -20 24 -40 58 l-36 62 30 55
c27 48 48 80 52 80 0 0 0 -56 0 -125z m42 102 c6 -12 22 -42 36 -67 l26 -45
-38 -63 c-20 -34 -39 -64 -41 -66 -2 -3 -4 56 -5 130 0 74 2 134 5 134 4 0 11
-10 17 -23z m634 -199 c0 -21 -4 -38 -10 -38 -5 0 -10 24 -10 53 0 37 3 48 10
37 5 -8 10 -32 10 -52z m-4020 -11 c135 -79 132 -75 42 -74 l-80 1 -40 67
c-47 78 -45 78 78 6z m419 6 c-17 -32 -36 -62 -41 -68 -10 -11 -148 -15 -148
-4 0 7 26 23 140 86 25 14 49 29 55 34 25 24 23 3 -6 -48z m223 -9 c62 -36
114 -67 116 -69 2 -1 -33 -2 -78 -1 l-80 1 -21 35 c-12 19 -30 50 -41 68 -11
17 -17 32 -14 32 2 0 56 -30 118 -66z m430 34 c-11 -18 -29 -49 -41 -68 -21
-35 -21 -35 -96 -36 -41 -1 -75 2 -75 6 0 3 19 16 43 28 64 34 155 86 163 95
20 19 23 3 6 -25z m226 -45 c50 -30 92 -55 92 -57 0 -1 -34 -3 -75 -3 l-75 0
-40 63 c-22 35 -40 66 -40 69 0 7 22 -4 138 -72z m386 4 l-37 -64 -73 0 c-41
1 -74 4 -74 7 0 4 19 17 43 29 23 12 71 40 107 61 36 21 66 36 68 35 2 -2 -13
-32 -34 -68z m251 -5 c39 -23 76 -46 84 -51 10 -6 -12 -9 -65 -8 l-79 1 -37
61 c-21 33 -37 64 -38 68 0 5 15 0 33 -11 17 -11 64 -38 102 -60z m388 6 l-38
-65 -83 0 -83 0 93 53 c51 30 104 60 118 68 14 8 26 13 28 12 1 -2 -14 -32
-35 -68z m222 11 c6 -4 33 -19 60 -34 74 -40 73 -42 -14 -41 -44 1 -81 3 -84
6 -9 11 -67 118 -67 124 0 6 76 -34 105 -55z m424 4 c-18 -32 -36 -63 -41 -69
-9 -12 -160 -15 -152 -3 4 6 49 33 154 91 19 11 39 24 45 29 25 25 23 3 -6
-48z m173 20 c35 -21 77 -46 93 -56 17 -9 38 -20 48 -23 37 -13 14 -21 -58
-21 l-75 0 -27 46 c-14 25 -33 56 -41 69 -19 30 -14 28 60 -15z m484 13 c-8
-14 -25 -42 -37 -63 -12 -21 -23 -40 -26 -43 -3 -3 -40 -5 -84 -6 -43 0 -77 1
-75 4 10 9 222 131 230 131 4 1 1 -10 -8 -23z m109 13 c4 -5 17 -14 28 -19 26
-11 124 -68 158 -91 23 -16 21 -17 -53 -15 -42 0 -81 6 -86 11 -21 22 -73 125
-64 125 6 0 14 -5 17 -11z m-3717 -211 c-155 -90 -145 -85 -127 -57 9 13 28
45 43 71 27 46 28 47 84 50 111 6 111 1 0 -64z m732 57 c0 -1 -42 -26 -92 -56
-51 -29 -104 -60 -118 -68 -23 -15 -23 -13 9 44 19 33 38 65 43 72 13 16 158
23 158 8z m276 -18 c5 -12 23 -44 39 -72 l30 -50 -40 24 c-22 13 -56 33 -75
43 -19 11 -55 32 -80 47 l-45 26 40 5 c72 9 119 1 131 -23z m358 12 c-3 -5 -9
-9 -14 -9 -5 0 -39 -18 -75 -40 -36 -22 -70 -40 -75 -40 -6 0 -10 -3 -10 -7 0
-5 -12 -13 -26 -20 -14 -6 -24 -9 -22 -5 2 4 19 35 38 69 l34 62 61 3 c69 3
97 -1 89 -13z m626 12 c19 -1 -5 -19 -90 -69 -63 -38 -117 -67 -119 -66 -2 2
14 32 35 68 39 68 47 73 114 69 19 -1 46 -2 60 -2z m935 -39 c11 -20 27 -49
37 -64 10 -14 18 -29 18 -32 0 -5 -111 56 -189 105 -41 25 -43 27 -20 31 13 1
49 2 80 0 52 -3 56 -6 74 -40z m623 25 c5 -7 24 -39 42 -72 l34 -59 -40 23
c-21 13 -75 44 -119 70 l-80 46 35 5 c50 7 118 0 128 -13z m-3153 -59 c36 -68
37 -72 15 -57 -14 8 -67 39 -117 68 -51 30 -93 55 -93 57 0 2 35 4 78 4 l78 0
39 -72z m1255 35 c11 -21 29 -53 40 -71 l20 -32 -28 14 c-15 8 -70 39 -122 70
l-95 56 82 0 83 0 20 -37z m653 -26 c20 -35 37 -66 37 -70 0 -5 -217 117 -229
129 -2 2 31 4 75 4 l80 0 37 -63z m249 3 c-57 -33 -107 -60 -112 -60 -5 0 -11
-6 -13 -12 -4 -9 -6 -7 -6 3 -1 9 7 27 18 40 10 13 26 39 35 57 l17 32 82 0
82 0 -103 -60z m653 9 c-50 -28 -105 -61 -124 -72 l-35 -21 34 60 c49 88 44
84 133 84 l81 0 -89 -51z m695 32 c-19 -10 -75 -41 -123 -69 -49 -28 -87 -48
-85 -44 2 4 19 35 38 70 l35 62 85 0 85 0 -35 -19z m-3700 -224 l-40 -72 -1
45 c-1 52 -1 198 0 220 1 8 19 -16 41 -54 l40 -68 -40 -71z m575 73 c0 -72 -2
-130 -5 -130 -3 0 -22 28 -42 63 l-36 62 36 67 c21 38 39 68 42 68 3 0 5 -59
5 -130z m76 40 l26 -46 -34 -60 c-19 -32 -38 -62 -41 -66 -4 -4 -7 54 -8 129
0 151 -2 149 57 43z m559 -47 l0 -138 -40 71 -40 72 37 66 c21 36 39 66 41 66
1 0 2 -62 2 -137z m66 70 l37 -67 -28 -50 c-54 -97 -52 -99 -52 49 0 74 1 135
2 135 2 0 20 -30 41 -67z m572 -134 l-3 -72 -24 44 c-57 104 -55 94 -27 141
14 24 31 54 38 68 12 23 13 19 16 -42 2 -37 2 -99 0 -139z m49 168 c10 -19 26
-49 36 -68 l19 -35 -37 -62 c-21 -34 -39 -62 -41 -62 -2 0 -4 59 -4 130 0 72
2 130 5 130 3 0 13 -15 22 -33z m655 -34 l38 -65 -23 -42 c-12 -22 -25 -43
-28 -46 -3 -3 -9 -14 -12 -24 -4 -10 -10 -16 -14 -12 -8 7 -11 256 -3 256 3 0
22 -30 42 -67z m573 -67 c0 -128 -5 -150 -25 -103 -6 12 -20 40 -34 62 l-24
40 31 55 c26 48 47 80 51 80 0 0 1 -60 1 -134z m77 47 l26 -48 -36 -62 c-21
-35 -39 -63 -42 -63 -3 0 -5 59 -5 130 -1 145 -1 145 57 43z m558 -50 l0 -138
-40 71 -40 72 37 66 c21 36 39 66 41 66 1 0 2 -62 2 -137z m48 103 c12 -20 22
-60 25 -92 4 -50 1 -64 -23 -102 l-27 -44 0 136 c0 75 1 136 2 136 2 0 12 -15
23 -34z m-3873 -105 c0 -71 -2 -128 -5 -126 -3 2 -21 33 -40 69 -34 64 -35 66
-18 93 9 16 24 43 33 61 10 17 20 32 24 32 3 0 6 -58 6 -129z m2550 -1 c0 -71
-3 -126 -6 -122 -4 4 -22 34 -40 67 l-32 59 33 63 c19 35 37 63 40 63 3 0 5
-58 5 -130z m-2717 -87 c153 -89 149 -83 55 -82 l-82 1 -40 69 c-22 38 -37 69
-35 69 3 0 49 -25 102 -57z m431 0 c-47 -84 -42 -81 -126 -82 -48 -1 -73 2
-68 8 10 9 217 131 223 131 2 0 -11 -26 -29 -57z m228 -13 l118 -70 -82 1 -82
1 -27 47 c-15 25 -34 56 -42 69 -8 12 -12 22 -9 22 3 0 58 -31 124 -70z m425
38 c-10 -18 -29 -49 -41 -69 l-21 -37 -82 -1 c-45 -1 -79 1 -77 3 9 10 224
134 232 135 5 1 0 -14 -11 -31z m211 -37 c59 -35 107 -65 107 -67 0 -2 -34 -4
-76 -3 l-75 1 -23 37 c-33 52 -59 104 -49 99 4 -3 56 -33 116 -67z m405 0
l-42 -69 -80 -1 c-79 -1 -85 2 -47 23 11 6 50 29 88 51 37 22 77 45 88 51 36
21 35 15 -7 -55z m260 -16 c45 -26 82 -48 82 -50 0 -1 -35 -3 -78 -4 l-77 -2
-35 63 c-47 85 -47 84 -9 61 19 -11 71 -42 117 -68z m386 29 c-45 -82 -46 -83
-137 -83 l-81 0 119 69 c66 38 121 68 122 66 2 -2 -9 -25 -23 -52z m215 -8
c51 -31 97 -56 102 -56 4 0 10 -4 13 -8 3 -5 -30 -9 -73 -9 l-77 -1 -43 70
c-23 39 -36 68 -29 65 7 -2 55 -30 107 -61z m435 32 c-9 -18 -28 -50 -41 -71
l-23 -37 -81 1 c-44 1 -79 2 -77 4 2 2 26 15 53 31 28 15 77 44 110 65 33 21
63 38 68 38 4 1 0 -14 -9 -31z m259 -65 c31 -19 57 -35 57 -37 0 -2 -33 -4
-74 -5 l-75 -1 -35 60 c-20 34 -36 65 -36 70 0 5 24 -5 53 -22 28 -17 78 -46
110 -65z m379 65 c-10 -18 -29 -49 -41 -70 l-21 -36 -83 -1 c-54 0 -77 3 -67
9 90 55 217 128 223 129 5 1 0 -14 -11 -31z m240 -55 c21 -13 42 -23 47 -23 5
0 14 -6 20 -14 10 -12 -1 -14 -64 -15 l-75 -1 -25 40 c-14 22 -25 44 -25 49 0
5 -7 14 -15 21 -8 7 -15 17 -15 22 0 9 67 -26 152 -79z m195 -48 c0 -8 -4 -12
-9 -9 -5 3 -6 10 -3 15 9 13 12 11 12 -6z m-4027 -81 c-52 -31 -107 -62 -122
-70 l-27 -14 21 37 c60 107 54 103 143 103 l80 0 -95 -56z m384 -15 l38 -71
-43 25 c-24 14 -80 46 -124 71 l-80 46 85 0 85 0 39 -71z m336 67 c0 -2 -42
-27 -92 -57 -51 -29 -104 -60 -118 -68 -23 -15 -23 -13 9 44 50 88 45 85 127
85 41 0 74 -2 74 -4z m273 -18 c8 -13 27 -45 42 -72 l28 -50 -39 23 c-21 13
-74 43 -116 68 -43 25 -78 47 -78 49 0 2 34 4 75 4 67 0 76 -2 88 -22z m366
18 c-9 -9 -224 -134 -227 -131 -1 1 15 32 35 68 l38 67 79 0 c44 0 77 -2 75
-4z m295 -58 c20 -34 35 -65 34 -68 -2 -3 -55 24 -118 62 l-115 68 81 0 81 0
37 -62z m236 -7 c-63 -37 -117 -66 -119 -65 -2 2 14 33 35 69 l38 65 81 0 80
0 -115 -69z m377 52 c4 -10 19 -39 35 -64 15 -25 28 -49 28 -52 0 -5 -216 117
-229 129 -2 2 33 4 78 4 69 0 83 -3 88 -17z m313 -21 c-186 -108 -186 -109
-169 -82 9 14 28 46 43 73 l28 47 81 0 82 0 -65 -38z m335 1 c10 -21 24 -45
30 -53 34 -43 22 -47 -38 -13 -34 19 -86 49 -114 65 -29 16 -53 32 -53 34 0 2
35 4 78 4 l77 0 20 -37z m326 12 c-23 -14 -45 -25 -47 -25 -2 0 -27 -15 -56
-34 -29 -18 -64 -39 -76 -45 -24 -13 -24 -13 4 36 57 101 45 93 137 93 l82 0
-44 -25z m296 13 c5 -7 25 -40 43 -73 l34 -59 -45 26 c-24 14 -60 35 -79 47
-19 11 -52 30 -72 41 -21 11 -38 23 -38 25 0 12 148 4 157 -7z m358 -2 c-43
-28 -217 -126 -213 -119 1 5 19 36 38 70 l35 63 80 0 c70 0 77 -2 60 -14z
m-3769 -166 c0 -71 -2 -127 -5 -125 -3 2 -22 33 -41 69 l-34 65 24 43 c13 24
29 53 34 65 6 12 13 19 16 16 3 -2 5 -63 6 -133z m68 -56 c-20 -35 -39 -64
-42 -64 -4 0 -6 46 -5 103 2 181 -2 171 43 93 l40 -68 -36 -64z m569 57 c2
-97 -1 -127 -9 -118 -17 18 -64 106 -64 120 -1 14 63 137 68 132 2 -1 4 -62 5
-134z m78 49 l26 -46 -37 -62 c-20 -35 -39 -64 -41 -66 -2 -3 -4 56 -4 131 0
149 -2 148 56 43z m557 -110 l-3 -72 -37 70 -38 69 38 68 37 68 3 -66 c2 -36
2 -98 0 -137z m72 121 c0 -6 4 -11 9 -11 5 0 12 -12 15 -26 5 -18 -1 -39 -20
-72 -53 -92 -51 -94 -51 53 l-1 136 24 -35 c13 -19 24 -40 24 -45z m569 -58
c2 -152 3 -151 -53 -47 l-27 51 36 66 c20 37 38 67 40 67 2 0 4 -62 4 -137z
m66 69 l36 -62 -21 -43 c-12 -23 -30 -53 -40 -67 l-20 -25 0 134 c0 74 2 132
4 130 2 -2 20 -32 41 -67z m571 -66 c-1 -74 -3 -133 -4 -131 -2 2 -21 33 -42
68 l-37 65 28 46 c16 25 29 48 29 51 0 4 21 32 26 35 0 0 0 -60 0 -134z m638
-1 c1 -69 -2 -125 -6 -125 -3 0 -22 28 -40 62 l-35 63 36 66 c20 37 38 66 40
63 2 -2 4 -60 5 -129z m79 44 l24 -46 -37 -62 c-20 -34 -39 -63 -41 -65 -2 -3
-4 56 -4 130 -1 131 0 135 17 112 9 -13 28 -44 41 -69z m557 -46 l0 -138 -39
69 c-24 42 -37 76 -33 85 11 25 65 121 69 121 1 0 3 -62 3 -137z m-1206 66
l36 -61 -36 -64 c-20 -35 -39 -62 -42 -60 -5 3 -8 200 -3 239 2 15 9 6 45 -54z
m1251 45 c1 -5 6 -19 13 -30 6 -12 10 -23 8 -25 -2 -2 -6 -29 -9 -59 -18 -163
-34 -163 -35 1 0 93 3 129 12 126 6 -2 11 -8 11 -13z m-3990 -229 c44 -26 82
-49 84 -51 2 -2 -33 -3 -77 -2 l-81 1 -40 68 -39 68 36 -18 c21 -11 73 -40
117 -66z m384 28 c-47 -85 -43 -82 -127 -82 l-77 0 25 19 c14 11 31 20 38 20
6 0 12 5 12 10 0 6 6 10 13 11 6 0 39 18 72 39 33 21 64 39 68 39 5 1 -6 -25
-24 -56z m252 -29 c9 -8 19 -11 22 -7 4 3 7 1 7 -5 0 -7 6 -12 13 -12 6 0 20
-7 30 -15 16 -12 9 -13 -62 -14 l-80 0 -22 37 c-12 20 -31 53 -43 72 l-20 34
69 -38 c39 -22 77 -45 86 -52z m374 8 l-37 -61 -74 0 c-41 0 -74 3 -74 7 1 10
214 129 218 121 1 -3 -14 -34 -33 -67z m268 -9 c42 -25 77 -46 77 -48 0 -2
-35 -3 -77 -2 l-76 2 -38 60 c-21 33 -38 64 -38 68 -1 5 16 -1 37 -13 20 -12
72 -42 115 -67z m371 13 l-38 -65 -73 0 c-40 0 -73 3 -73 7 1 8 213 131 219
126 2 -2 -14 -32 -35 -68z m254 -5 c50 -30 92 -55 92 -56 0 -2 -35 -3 -78 -3
l-77 0 -38 63 c-43 74 -45 82 -14 63 12 -8 64 -38 115 -67z m385 6 l-38 -66
-79 0 c-43 0 -76 3 -72 6 11 12 220 132 224 129 1 -2 -14 -33 -35 -69z m242 0
c55 -32 101 -60 103 -62 2 -2 -32 -3 -75 -3 l-79 0 -41 68 c-48 80 -48 80 92
-3z m404 16 c-18 -32 -36 -63 -41 -69 -5 -7 -43 -12 -91 -13 -70 -1 -79 1 -60
11 12 7 66 39 120 70 54 32 99 58 101 58 2 0 -11 -26 -29 -57z m239 -20 c50
-30 92 -56 92 -58 0 -2 -33 -4 -74 -4 l-75 0 -22 37 c-12 20 -31 52 -42 71
l-20 33 24 -12 c13 -7 66 -37 117 -67z m387 -1 l-37 -61 -79 0 c-43 0 -79 1
-79 3 0 2 15 11 33 20 17 10 68 39 112 65 44 26 81 44 83 41 1 -4 -14 -35 -33
-68z m246 4 c31 -17 67 -38 80 -47 23 -16 21 -17 -54 -17 l-78 0 -23 37 c-13
20 -31 51 -41 70 l-17 34 38 -23 c22 -13 64 -37 95 -54z m-3427 -158 l39 -72
-34 21 c-19 11 -71 42 -117 68 -45 26 -80 50 -78 53 2 4 37 6 78 4 l73 -3 39
-71z m-384 16 c-52 -31 -108 -63 -124 -71 l-30 -16 15 24 c9 13 28 45 43 72
l28 47 81 0 82 0 -95 -56z m720 52 c0 -2 -37 -25 -82 -51 -46 -26 -99 -57
-118 -68 l-34 -21 29 49 c16 28 34 60 40 72 9 21 17 23 88 23 42 0 77 -2 77
-4z m273 -18 c39 -63 68 -120 61 -116 -87 49 -224 131 -224 134 0 2 34 4 75 4
67 0 76 -2 88 -22z m352 8 c-43 -28 -217 -126 -213 -119 1 5 19 36 38 70 l35
63 80 0 c70 0 77 -2 60 -14z m313 -56 l40 -69 -37 19 c-21 10 -75 41 -122 69
l-84 51 81 0 81 0 41 -70z m326 55 c-10 -8 -23 -15 -27 -15 -5 0 -21 -8 -35
-18 -15 -11 -57 -36 -95 -56 l-68 -38 43 71 43 71 79 0 c72 0 78 -1 60 -15z
m310 -51 c20 -36 36 -67 34 -69 -2 -2 -48 23 -102 56 -54 32 -102 59 -107 59
-4 0 -11 5 -14 10 -4 6 23 10 72 10 l79 0 38 -66z m256 10 c-164 -96 -155 -95
-109 -14 l41 70 81 0 82 0 -95 -56z m382 -13 c22 -35 38 -65 36 -66 -3 -3
-212 116 -225 128 -4 4 28 7 72 5 l78 -3 39 -64z m338 65 c0 -2 -35 -24 -77
-49 -43 -25 -96 -55 -117 -68 l-39 -23 28 50 c58 102 47 94 130 94 41 0 75 -2
75 -4z m267 -8 c5 -7 25 -40 43 -73 l34 -59 -45 26 c-24 14 -70 41 -102 59
-32 19 -68 40 -80 46 -19 11 -10 13 59 13 54 0 85 -4 91 -12z m368 2 c-3 -5
-10 -10 -14 -10 -5 0 -50 -25 -100 -55 -51 -30 -96 -55 -101 -55 -9 0 38 87
62 118 13 15 162 17 153 2z m-3142 -177 c-1 -65 -2 -120 -2 -123 -1 -3 -7 6
-14 20 -7 14 -25 46 -39 71 l-26 47 34 56 c19 31 34 62 35 69 0 7 3 4 7 -5 4
-10 6 -70 5 -135z m70 71 l35 -62 -29 -46 c-16 -25 -29 -50 -29 -55 0 -5 -6
-11 -13 -14 -10 -4 -13 23 -12 124 0 70 3 125 7 121 4 -4 22 -35 41 -68z m565
-124 l-3 -72 -37 69 -37 68 24 45 c14 25 30 56 37 70 12 22 13 19 16 -42 2
-37 2 -99 0 -138z m99 71 c4 -15 2 -26 -5 -29 -7 -2 -12 -8 -12 -13 0 -5 -13
-30 -29 -55 l-29 -47 0 139 0 138 34 -55 c19 -30 38 -65 41 -78z m634 -24 c-6
-12 -15 -29 -21 -37 -5 -8 -19 -31 -30 -50 l-20 -35 0 140 0 140 41 -68 c35
-58 40 -72 30 -90z m1815 101 c-3 -29 -14 -74 -24 -100 l-18 -46 -17 30 c-17
30 -17 31 20 99 20 38 39 69 41 69 3 0 2 -24 -2 -52z m-3821 -88 c0 -71 -1
-130 -2 -130 -5 0 -73 128 -73 138 0 12 63 122 70 122 3 0 5 -58 5 -130z m69
69 l37 -61 -28 -47 c-15 -25 -33 -57 -40 -71 -7 -14 -13 -20 -14 -15 -4 67 -2
255 2 255 4 0 23 -28 43 -61z m1845 -69 c0 -74 -5 -128 -10 -124 -5 3 -9 9 -9
14 0 6 -14 33 -32 61 l-32 52 35 63 c19 35 38 64 42 64 4 0 7 -58 6 -130z
m637 0 c0 -71 -1 -130 -2 -130 -2 0 -20 30 -40 67 l-38 66 34 64 c19 35 37 63
40 63 3 0 6 -58 6 -130z m68 69 l36 -61 -36 -64 c-19 -35 -39 -66 -42 -68 -4
-2 -7 54 -7 125 0 71 3 129 6 129 4 0 23 -27 43 -61z m571 -69 c0 -142 -1
-143 -53 -50 l-30 55 35 63 c19 34 38 62 41 62 4 0 7 -58 7 -130z m65 71 c18
-33 33 -62 33 -66 0 -11 -67 -125 -74 -125 -3 0 -5 56 -5 125 1 69 4 125 7
125 3 0 20 -27 39 -59z m-3409 -167 c63 -36 116 -67 117 -69 2 -2 -33 -3 -78
-2 l-81 2 -31 55 c-16 30 -35 61 -40 68 -17 20 -5 15 113 -54z m418 9 c-48
-86 -43 -83 -133 -83 l-81 0 120 70 c66 38 121 70 123 70 2 0 -11 -26 -29 -57z
m222 -10 l114 -68 -75 -3 c-68 -3 -76 -1 -90 19 -25 38 -71 119 -66 119 2 0
55 -30 117 -67z m410 0 l-39 -68 -77 -3 c-77 -3 -91 7 -42 29 26 11 97 53 147
85 19 13 38 23 42 23 4 1 -10 -29 -31 -66z m259 -19 l85 -49 -69 -3 c-38 -2
-74 -1 -81 2 -10 4 -85 120 -85 133 0 2 15 -4 33 -15 17 -11 70 -41 117 -68z
m375 12 l-37 -66 -81 1 c-57 0 -77 3 -67 10 55 35 216 126 218 124 2 -2 -13
-33 -33 -69z m277 -19 c32 -18 58 -35 58 -39 0 -5 -32 -8 -70 -8 l-70 0 -35
55 c-55 86 -55 91 6 56 30 -18 80 -46 111 -64z m361 20 l-38 -67 -79 0 c-44 0
-77 2 -75 4 10 10 224 134 227 132 1 -2 -15 -33 -35 -69z m234 3 l118 -70 -81
0 -81 0 -41 70 c-22 39 -39 70 -36 70 2 0 56 -31 121 -70z m412 13 c-46 -85
-45 -84 -130 -81 l-74 3 75 44 c41 24 91 54 110 67 19 12 39 23 43 23 4 1 -7
-25 -24 -56z m227 -13 l119 -70 -83 2 c-81 3 -84 4 -100 33 -9 17 -19 32 -22
35 -8 8 -40 70 -36 70 2 0 57 -32 122 -70z m426 38 c-10 -18 -29 -50 -41 -70
l-23 -38 -81 0 -82 0 115 69 c63 38 119 70 123 70 5 1 0 -14 -11 -31z m226
-45 c73 -38 72 -63 -3 -63 -53 0 -56 1 -80 40 -14 22 -25 44 -25 49 0 5 -7 14
-15 21 -32 26 -13 31 28 6 23 -14 66 -38 95 -53z m-3434 -155 l39 -72 -39 23
c-21 13 -74 43 -116 68 -43 25 -78 47 -78 49 0 2 35 4 78 4 l77 0 39 -72z
m330 57 c-10 -8 -22 -15 -26 -15 -6 0 -86 -45 -167 -93 l-35 -21 34 60 c49 88
44 84 133 84 73 0 79 -1 61 -15z m285 -20 c12 -19 31 -51 42 -71 l22 -36 -44
24 c-24 13 -55 31 -69 39 -14 9 -50 30 -80 47 l-55 32 82 0 81 0 21 -35z m356
26 c-6 -5 -30 -20 -55 -33 -25 -14 -72 -41 -105 -61 -33 -19 -62 -33 -64 -31
-3 2 5 17 16 32 11 15 23 37 27 50 4 12 12 22 17 22 5 0 9 7 9 15 0 12 16 15
82 15 48 0 78 -4 73 -9z m303 -61 l41 -70 -63 34 c-70 38 -169 96 -175 102 -2
2 32 4 76 4 l80 0 41 -70z m312 48 c-82 -50 -200 -116 -200 -112 0 3 17 34 38
69 l37 65 80 0 80 0 -35 -22z m323 -43 c20 -35 37 -66 37 -69 0 -8 -219 118
-220 127 0 4 33 7 73 7 l73 0 37 -65z m297 32 c-30 -18 -85 -50 -122 -70 l-67
-38 40 71 41 70 81 0 82 0 -55 -33z m344 -39 l39 -72 -39 23 c-21 13 -74 43
-116 68 -43 25 -78 47 -78 49 0 2 35 4 78 4 l77 0 39 -72z m336 68 c0 -3 -125
-78 -224 -134 -6 -3 1 12 14 34 13 21 32 54 42 72 19 32 21 32 94 32 41 0 74
-2 74 -4z m280 -31 c10 -16 27 -47 39 -68 l22 -39 -58 33 c-32 18 -87 50 -123
71 l-65 38 84 -2 c82 -3 85 -4 101 -33z m300 24 c0 -23 -22 -50 -53 -64 -18
-9 -51 -27 -75 -40 l-42 -24 16 32 c50 95 61 107 109 107 25 0 45 -5 45 -11z
m-3725 -159 c0 -71 -2 -130 -6 -130 -3 0 -21 28 -40 63 l-35 62 39 68 c21 37
40 67 41 67 1 0 1 -58 1 -130z m69 -69 c-20 -34 -39 -63 -43 -65 -3 -2 -5 45
-4 105 2 181 -2 173 43 93 l40 -72 -36 -61z m634 130 l40 -69 -19 -28 c-11
-16 -27 -44 -35 -61 -9 -18 -19 -33 -23 -33 -3 0 -6 59 -6 130 0 72 0 130 1
130 1 0 20 -31 42 -69z m572 -68 l0 -138 -40 69 -40 68 37 69 c20 38 39 69 40
69 2 0 3 -62 3 -137z m50 95 c0 -4 13 -26 29 -50 l29 -42 -34 -53 c-19 -30
-34 -58 -34 -63 0 -6 -4 -10 -9 -10 -5 0 -9 59 -9 132 0 115 2 130 14 113 8
-10 14 -22 14 -27z m588 -158 l-3 -72 -39 68 -39 68 23 41 c12 22 30 54 39 70
l16 30 3 -67 c2 -37 2 -99 0 -138z m87 37 c-63 -122 -65 -121 -65 33 l0 135
41 -68 c40 -68 41 -68 24 -100z m550 28 c0 -74 -1 -135 -1 -135 -5 0 -74 124
-74 132 0 10 68 138 73 138 1 0 2 -61 2 -135z m35 126 c0 -5 16 -35 35 -67
l35 -58 -34 -60 c-19 -33 -38 -62 -43 -63 -4 -2 -8 56 -8 127 0 72 3 130 8
130 4 0 7 -4 7 -9z m603 -113 c-1 -68 -2 -130 -3 -138 0 -8 -18 17 -39 55
l-39 70 30 55 c27 48 48 80 52 80 0 0 0 -55 -1 -122z m68 51 l38 -62 -27 -47
c-61 -105 -58 -107 -58 43 0 75 2 134 5 132 2 -3 21 -32 42 -66z m-2617 -73
c1 -138 0 -139 -51 -46 l-31 55 35 63 c20 35 38 61 41 58 3 -3 5 -62 6 -130z
m-375 -83 c-18 -32 -36 -63 -41 -69 -4 -6 -43 -12 -86 -13 -47 -1 -73 2 -67 7
10 10 217 132 223 132 2 0 -11 -26 -29 -57z m228 -14 c35 -21 67 -39 72 -39 5
0 14 -6 20 -14 9 -11 -2 -13 -63 -14 -83 -1 -75 -7 -135 101 l-21 37 32 -16
c17 -9 60 -34 95 -55z m398 -8 l-36 -61 -74 1 c-41 1 -73 5 -70 10 3 4 43 29
88 53 45 25 91 52 102 60 32 23 29 3 -10 -63z m139 70 c3 -5 49 -33 101 -63
52 -29 95 -56 95 -60 0 -4 -32 -7 -70 -7 -70 0 -71 1 -94 37 -38 61 -57 102
-47 102 5 0 12 -4 15 -9z m502 -64 l-35 -64 -83 -2 c-45 -1 -80 0 -78 2 6 6
102 63 160 95 25 13 49 28 54 33 23 21 16 -5 -18 -64z m252 -7 c50 -29 92 -54
92 -56 0 -5 -133 -4 -152 2 -10 3 -18 9 -18 15 0 5 -13 31 -30 57 -36 59 -37
69 -7 50 12 -9 64 -39 115 -68z m385 7 l-37 -67 -78 0 c-43 0 -78 2 -78 5 0 2
33 23 73 45 39 22 90 51 112 64 22 13 41 22 43 21 1 -1 -14 -32 -35 -68z m267
-17 c25 -16 51 -29 58 -29 6 -1 12 -5 12 -11 0 -6 -32 -10 -75 -10 -69 0 -76
2 -85 23 -6 12 -19 36 -30 52 -44 68 -44 68 17 35 32 -17 78 -44 103 -60z
m380 33 c-47 -85 -46 -84 -131 -81 l-74 3 115 67 c63 37 117 68 118 68 2 0
-10 -26 -28 -57z m252 -30 c21 -13 42 -23 47 -23 5 0 14 -6 20 -14 9 -11 -2
-13 -63 -14 l-75 -1 -22 37 c-12 20 -31 52 -43 71 l-20 35 60 -34 c32 -18 76
-44 96 -57z m389 35 c-50 -87 -51 -88 -137 -87 l-76 1 113 68 c63 37 117 68
122 69 4 1 -6 -22 -22 -51z m149 21 c0 -4 -3 -15 -6 -24 -5 -13 -10 -10 -25
15 -24 39 -24 42 6 28 14 -6 25 -15 25 -19z m-3346 -201 l39 -72 -39 23 c-45
27 -89 52 -141 82 -64 35 -61 39 23 39 l79 0 39 -72z m345 68 c-2 -1 -53 -31
-114 -66 -60 -34 -114 -65 -119 -68 -11 -6 -11 -6 38 76 l37 62 81 0 c45 0 79
-2 77 -4z m269 -28 c11 -18 29 -49 40 -69 20 -36 20 -37 1 -32 -10 3 -19 9
-19 14 0 5 -4 9 -10 9 -5 0 -51 25 -102 55 l-93 55 82 0 c81 0 81 0 101 -32z
m358 24 c-2 -4 -24 -18 -48 -30 -24 -13 -56 -31 -73 -41 -65 -39 -105 -60
-105 -56 0 5 21 40 66 113 13 20 23 22 90 22 41 0 73 -4 70 -8z m300 -57 c18
-33 34 -63 34 -67 0 -4 -34 13 -76 37 -42 25 -78 45 -80 45 -3 0 -22 11 -42
25 l-37 26 84 -3 83 -3 34 -60z m334 55 c-120 -72 -216 -127 -218 -125 -1 1
15 32 35 68 l38 67 80 0 c52 -1 75 -4 65 -10z m303 -55 c20 -35 37 -67 37 -70
0 -4 -15 2 -32 13 -18 11 -49 29 -68 39 -19 11 -57 34 -85 51 l-50 32 80 0 80
0 38 -65z m237 -4 c-63 -37 -117 -67 -119 -65 -2 2 13 32 33 68 l37 66 82 0
82 0 -115 -69z m375 49 c6 -10 23 -42 38 -70 31 -58 38 -59 -88 15 -133 79
-131 75 -40 75 70 0 82 -3 90 -20z m350 2 c-16 -10 -52 -31 -80 -46 -27 -16
-70 -40 -95 -54 l-45 -27 24 40 c13 22 29 49 35 60 6 11 15 26 19 33 6 8 35
12 90 12 l82 0 -30 -18z m301 -27 c14 -25 23 -52 20 -61 -6 -15 -8 -15 -31 0
-13 9 -46 28 -72 43 -26 14 -61 35 -78 45 l-30 18 82 0 82 0 27 -45z m-2793
-108 c-1 -61 -2 -123 -2 -137 -1 -20 -9 -11 -41 45 l-39 70 31 55 c27 48 48
80 52 80 0 0 0 -51 -1 -113z m70 39 l34 -60 -26 -46 c-58 -104 -56 -106 -56
44 0 74 3 132 6 128 4 -4 23 -34 42 -66z m565 -127 l-3 -72 -25 47 c-14 26
-30 57 -37 69 -10 18 -7 31 25 90 l37 69 3 -66 c2 -36 2 -98 0 -137z m98 78
c5 -16 -46 -120 -66 -132 -5 -3 -8 53 -7 125 l1 131 33 -53 c18 -29 35 -61 39
-71z m644 -13 c0 -3 -18 -35 -40 -71 l-40 -67 0 140 0 139 40 -68 c22 -38 40
-71 40 -73z m608 -57 c-18 -29 -37 -56 -42 -58 -9 -4 -16 214 -7 239 2 8 21
-18 43 -56 l39 -70 -33 -55z m567 58 c0 -148 -1 -148 -53 -55 l-30 55 39 68
c22 37 41 67 42 67 1 0 2 -61 2 -135z m64 68 l40 -67 -21 -36 c-12 -19 -28
-47 -35 -62 -8 -16 -18 -28 -22 -28 -4 0 -7 59 -7 130 1 72 2 130 3 130 1 0
20 -30 42 -67z m-1339 -75 c0 -72 -2 -129 -4 -127 -2 2 -21 32 -41 67 l-37 63
34 65 c18 35 36 64 41 64 4 0 7 -59 7 -132z m636 2 c0 -72 -3 -127 -7 -123 -4
5 -23 35 -41 68 l-34 60 36 62 c19 35 37 63 40 63 3 0 5 -59 6 -130z m-2066
-98 c19 -10 53 -30 75 -43 l40 -24 -75 -3 c-84 -3 -76 -9 -134 91 l-28 50 43
-25 c24 -14 60 -35 79 -46z m423 20 c-57 -98 -49 -93 -135 -90 l-77 3 117 67
c64 38 118 68 120 68 1 0 -10 -22 -25 -48z m235 -31 c50 -30 92 -55 92 -57 0
-2 -35 -4 -77 -4 l-78 0 -35 63 c-47 83 -47 84 -19 66 13 -9 66 -39 117 -68z
m390 9 l-41 -70 -81 1 c-57 0 -76 3 -66 10 34 22 216 127 222 128 3 1 -12 -30
-34 -69z m327 -56 c17 -12 10 -14 -61 -14 l-80 0 -37 65 c-20 35 -37 66 -37
69 0 5 175 -94 215 -120z m337 108 c-4 -9 -20 -41 -37 -70 l-30 -52 -77 0
c-43 0 -78 2 -78 5 0 2 21 16 48 30 26 14 76 43 112 65 36 21 66 39 67 39 1 1
-1 -7 -5 -17z m223 -62 c2 0 26 -13 52 -30 l47 -30 -82 0 -81 0 -36 63 c-19
35 -35 67 -35 70 0 4 29 -11 65 -33 36 -22 67 -40 70 -40z m394 23 c-48 -86
-43 -83 -128 -83 l-76 0 25 20 c14 11 28 20 31 20 3 0 44 22 90 50 46 27 85
50 87 50 2 0 -11 -26 -29 -57z m221 -11 c19 -11 55 -31 80 -46 l45 -26 -82 0
-81 0 -23 38 c-12 20 -31 53 -43 72 l-20 34 44 -26 c25 -14 61 -35 80 -46z
m-2161 -127 c12 -19 31 -51 42 -71 l22 -36 -33 17 c-18 9 -66 37 -107 61 -41
24 -79 44 -84 44 -5 0 -9 5 -9 10 0 6 31 10 74 10 74 0 74 0 95 -35z m357 28
c-12 -12 -221 -131 -224 -128 -3 3 13 31 64 113 13 20 22 22 91 22 42 0 73 -3
69 -7z m299 -59 c20 -36 35 -67 33 -69 -2 -2 -48 23 -102 56 -54 32 -103 59
-107 59 -5 0 -9 5 -9 10 0 6 31 10 74 10 l74 0 37 -66z m343 60 c-10 -9 -223
-132 -226 -129 -1 1 14 32 35 68 l37 67 80 0 c43 0 77 -3 74 -6z m295 -59 c20
-35 37 -66 37 -69 0 -3 -15 3 -32 13 -18 10 -70 40 -115 66 -46 26 -83 49 -83
51 0 2 35 4 78 4 l77 0 38 -65z m322 49 c-24 -19 -177 -109 -198 -117 -8 -3 3
24 26 64 l40 69 76 0 c70 -1 75 -2 56 -16z m319 -56 l39 -71 -59 33 c-32 18
-71 42 -86 52 -14 10 -29 18 -32 18 -3 0 -20 9 -38 20 l-33 20 85 0 85 0 39
-72z m336 67 c0 -2 -30 -22 -67 -43 -119 -70 -166 -94 -161 -85 3 4 22 36 42
71 l37 62 75 0 c41 0 74 -2 74 -5z m-1870 -172 l0 -138 -40 68 -40 69 37 69
c21 38 39 69 41 69 1 0 2 -62 2 -137z m96 14 c3 -10 -6 -38 -22 -65 -54 -93
-52 -95 -52 53 l0 136 34 -53 c19 -29 37 -61 40 -71z m543 -14 l-1 -137 -34
55 c-18 30 -36 61 -39 70 -4 13 61 149 72 149 2 0 3 -62 2 -137z m52 92 c55
-98 54 -89 14 -155 -20 -33 -38 -60 -41 -60 -2 0 -4 59 -4 132 0 72 2 129 4
127 2 -2 14 -22 27 -44z m585 -90 c-1 -74 -4 -131 -8 -127 -3 4 -22 34 -40 67
l-34 60 39 67 c22 38 40 68 41 68 1 0 2 -61 2 -135z m69 61 l35 -64 -36 -61
c-20 -33 -39 -61 -43 -61 -5 0 -6 203 -2 243 2 16 12 4 46 -57z m-1477 -176
c50 -29 92 -54 92 -56 0 -2 -35 -4 -77 -4 l-78 0 -35 63 c-46 82 -47 84 -19
66 13 -9 66 -40 117 -69z m391 10 l-41 -70 -81 0 c-55 1 -77 4 -67 10 76 47
216 128 222 129 4 1 -11 -30 -33 -69z m326 -54 c25 -11 -18 -21 -77 -18 l-65
4 -36 62 c-21 35 -37 65 -37 69 0 3 46 -21 102 -54 56 -32 107 -61 113 -63z
m308 51 l-37 -67 -80 0 c-88 0 -88 3 -6 47 30 16 77 44 105 61 27 17 51 30 52
28 2 -2 -13 -33 -34 -69z m257 -11 l95 -56 -82 0 -81 0 -28 48 c-15 26 -34 58
-43 71 l-15 24 30 -16 c16 -8 72 -40 124 -71z m401 48 c-12 -19 -18 -40 -15
-46 4 -7 2 -8 -4 -4 -7 4 -12 3 -12 -1 0 -19 -91 -53 -143 -53 l-52 0 120 70
c66 38 122 70 123 70 2 0 -6 -16 -17 -36z m-1323 -143 c3 -9 8 -18 11 -21 9
-7 51 -87 51 -95 0 -4 -6 -3 -12 2 -13 10 -65 40 -160 92 -27 14 -48 29 -48
33 0 4 34 7 76 6 59 -1 77 -5 82 -17z m362 10 c-1 -7 -214 -130 -218 -126 -2
2 14 33 35 68 l38 66 73 -1 c39 0 72 -3 72 -7z m303 -60 c21 -34 37 -65 35
-67 -3 -3 -214 119 -226 131 -3 3 30 4 74 2 l79 -2 38 -64z m345 64 c-10 -9
-206 -123 -221 -128 -20 -8 -19 -6 23 58 15 22 29 47 33 56 4 14 20 17 86 16
45 0 80 -1 79 -2z m122 -5 c0 -5 -7 -7 -15 -4 -8 4 -15 8 -15 10 0 2 7 4 15 4
8 0 15 -4 15 -10z m-1265 -158 c-2 -3 -20 -1 -38 2 l-35 7 -1 61 -1 62 40 -64
c22 -35 37 -66 35 -68z m545 49 l0 -79 -38 -4 c-32 -3 -38 0 -40 16 -1 15 66
145 76 146 1 0 2 -36 2 -79z m91 -32 c22 -32 20 -34 -38 -43 l-33 -4 0 81 0
82 25 -43 c14 -24 34 -57 46 -73z"/>
</g>
</svg>
